<svg xmlns="http://www.w3.org/2000/svg" viewBox="0 0 32 30" shape-rendering="crispEdges">
  <rect x="5" y="1" width="4" height="1" fill="#14120f"/>
  <rect x="24" y="1" width="4" height="1" fill="#14120f"/>
  <rect x="4" y="2" width="6" height="1" fill="#5a544a"/>
  <rect x="23" y="2" width="6" height="1" fill="#5a544a"/>
  <rect x="3" y="3" width="1" height="1" fill="#14120f"/>
  <rect x="4" y="3" width="1" height="1" fill="#5a544a"/>
  <rect x="5" y="3" width="4" height="1" fill="#3987e5"/>
  <rect x="9" y="3" width="1" height="1" fill="#5a544a"/>
  <rect x="10" y="3" width="1" height="1" fill="#14120f"/>
  <rect x="22" y="3" width="1" height="1" fill="#14120f"/>
  <rect x="23" y="3" width="1" height="1" fill="#5a544a"/>
  <rect x="24" y="3" width="4" height="1" fill="#3987e5"/>
  <rect x="28" y="3" width="1" height="1" fill="#5a544a"/>
  <rect x="29" y="3" width="1" height="1" fill="#14120f"/>
  <rect x="3" y="4" width="1" height="1" fill="#14120f"/>
  <rect x="4" y="4" width="1" height="1" fill="#5a544a"/>
  <rect x="5" y="4" width="4" height="1" fill="#3987e5"/>
  <rect x="9" y="4" width="1" height="1" fill="#5a544a"/>
  <rect x="10" y="4" width="1" height="1" fill="#14120f"/>
  <rect x="22" y="4" width="1" height="1" fill="#14120f"/>
  <rect x="23" y="4" width="1" height="1" fill="#5a544a"/>
  <rect x="24" y="4" width="4" height="1" fill="#3987e5"/>
  <rect x="28" y="4" width="1" height="1" fill="#5a544a"/>
  <rect x="29" y="4" width="1" height="1" fill="#14120f"/>
  <rect x="3" y="5" width="1" height="1" fill="#14120f"/>
  <rect x="4" y="5" width="1" height="1" fill="#5a544a"/>
  <rect x="5" y="5" width="4" height="1" fill="#3987e5"/>
  <rect x="9" y="5" width="1" height="1" fill="#5a544a"/>
  <rect x="10" y="5" width="1" height="1" fill="#14120f"/>
  <rect x="22" y="5" width="1" height="1" fill="#14120f"/>
  <rect x="23" y="5" width="1" height="1" fill="#5a544a"/>
  <rect x="24" y="5" width="4" height="1" fill="#3987e5"/>
  <rect x="28" y="5" width="1" height="1" fill="#5a544a"/>
  <rect x="29" y="5" width="1" height="1" fill="#14120f"/>
  <rect x="3" y="6" width="1" height="1" fill="#14120f"/>
  <rect x="4" y="6" width="1" height="1" fill="#5a544a"/>
  <rect x="5" y="6" width="4" height="1" fill="#3987e5"/>
  <rect x="9" y="6" width="1" height="1" fill="#5a544a"/>
  <rect x="10" y="6" width="1" height="1" fill="#14120f"/>
  <rect x="22" y="6" width="1" height="1" fill="#14120f"/>
  <rect x="23" y="6" width="1" height="1" fill="#5a544a"/>
  <rect x="24" y="6" width="4" height="1" fill="#3987e5"/>
  <rect x="28" y="6" width="1" height="1" fill="#5a544a"/>
  <rect x="29" y="6" width="1" height="1" fill="#14120f"/>
  <rect x="3" y="7" width="1" height="1" fill="#14120f"/>
  <rect x="4" y="7" width="6" height="1" fill="#5a544a"/>
  <rect x="10" y="7" width="1" height="1" fill="#14120f"/>
  <rect x="22" y="7" width="1" height="1" fill="#14120f"/>
  <rect x="23" y="7" width="6" height="1" fill="#5a544a"/>
  <rect x="29" y="7" width="1" height="1" fill="#14120f"/>
  <rect x="8" y="8" width="17" height="1" fill="#14120f"/>
  <rect x="7" y="9" width="19" height="1" fill="#6b6459"/>
  <rect x="6" y="10" width="21" height="1" fill="#6b6459"/>
  <rect x="5" y="11" width="23" height="1" fill="#6b6459"/>
  <rect x="4" y="12" width="1" height="1" fill="#14120f"/>
  <rect x="5" y="12" width="23" height="1" fill="#6b6459"/>
  <rect x="28" y="12" width="1" height="1" fill="#14120f"/>
  <rect x="4" y="13" width="1" height="1" fill="#14120f"/>
  <rect x="5" y="13" width="4" height="1" fill="#6b6459"/>
  <rect x="10" y="13" width="3" height="1" fill="#14120f"/>
  <rect x="14" y="13" width="5" height="1" fill="#6b6459"/>
  <rect x="20" y="13" width="3" height="1" fill="#14120f"/>
  <rect x="24" y="13" width="4" height="1" fill="#6b6459"/>
  <rect x="28" y="13" width="1" height="1" fill="#14120f"/>
  <rect x="4" y="14" width="1" height="1" fill="#14120f"/>
  <rect x="5" y="14" width="4" height="1" fill="#6b6459"/>
  <rect x="9" y="14" width="5" height="1" fill="#14120f"/>
  <rect x="14" y="14" width="5" height="1" fill="#6b6459"/>
  <rect x="19" y="14" width="5" height="1" fill="#14120f"/>
  <rect x="24" y="14" width="4" height="1" fill="#6b6459"/>
  <rect x="28" y="14" width="1" height="1" fill="#14120f"/>
  <rect x="4" y="15" width="1" height="1" fill="#14120f"/>
  <rect x="5" y="15" width="4" height="1" fill="#6b6459"/>
  <rect x="9" y="15" width="5" height="1" fill="#14120f"/>
  <rect x="14" y="15" width="5" height="1" fill="#6b6459"/>
  <rect x="19" y="15" width="5" height="1" fill="#14120f"/>
  <rect x="24" y="15" width="4" height="1" fill="#6b6459"/>
  <rect x="28" y="15" width="1" height="1" fill="#14120f"/>
  <rect x="4" y="16" width="1" height="1" fill="#14120f"/>
  <rect x="5" y="16" width="4" height="1" fill="#6b6459"/>
  <rect x="9" y="16" width="5" height="1" fill="#14120f"/>
  <rect x="14" y="16" width="5" height="1" fill="#6b6459"/>
  <rect x="19" y="16" width="5" height="1" fill="#14120f"/>
  <rect x="24" y="16" width="4" height="1" fill="#6b6459"/>
  <rect x="28" y="16" width="1" height="1" fill="#14120f"/>
  <rect x="4" y="17" width="1" height="1" fill="#14120f"/>
  <rect x="5" y="17" width="4" height="1" fill="#6b6459"/>
  <rect x="10" y="17" width="3" height="1" fill="#14120f"/>
  <rect x="14" y="17" width="5" height="1" fill="#6b6459"/>
  <rect x="20" y="17" width="3" height="1" fill="#14120f"/>
  <rect x="24" y="17" width="4" height="1" fill="#6b6459"/>
  <rect x="28" y="17" width="1" height="1" fill="#14120f"/>
  <rect x="4" y="18" width="1" height="1" fill="#14120f"/>
  <rect x="5" y="18" width="1" height="1" fill="#6b6459"/>
  <rect x="8" y="18" width="17" height="1" fill="#a89c88"/>
  <rect x="27" y="18" width="1" height="1" fill="#6b6459"/>
  <rect x="28" y="18" width="1" height="1" fill="#14120f"/>
  <rect x="4" y="19" width="1" height="1" fill="#14120f"/>
  <rect x="5" y="19" width="1" height="1" fill="#6b6459"/>
  <rect x="7" y="19" width="19" height="1" fill="#a89c88"/>
  <rect x="27" y="19" width="1" height="1" fill="#6b6459"/>
  <rect x="28" y="19" width="1" height="1" fill="#14120f"/>
  <rect x="4" y="20" width="1" height="1" fill="#14120f"/>
  <rect x="5" y="20" width="1" height="1" fill="#6b6459"/>
  <rect x="6" y="20" width="5" height="1" fill="#a89c88"/>
  <rect x="11" y="20" width="2" height="1" fill="#23201d"/>
  <rect x="13" y="20" width="7" height="1" fill="#a89c88"/>
  <rect x="20" y="20" width="2" height="1" fill="#23201d"/>
  <rect x="22" y="20" width="5" height="1" fill="#a89c88"/>
  <rect x="27" y="20" width="1" height="1" fill="#6b6459"/>
  <rect x="28" y="20" width="1" height="1" fill="#14120f"/>
  <rect x="4" y="21" width="1" height="1" fill="#14120f"/>
  <rect x="5" y="21" width="1" height="1" fill="#6b6459"/>
  <rect x="6" y="21" width="5" height="1" fill="#a89c88"/>
  <rect x="11" y="21" width="2" height="1" fill="#23201d"/>
  <rect x="13" y="21" width="7" height="1" fill="#a89c88"/>
  <rect x="20" y="21" width="2" height="1" fill="#23201d"/>
  <rect x="22" y="21" width="5" height="1" fill="#a89c88"/>
  <rect x="27" y="21" width="1" height="1" fill="#6b6459"/>
  <rect x="28" y="21" width="1" height="1" fill="#14120f"/>
  <rect x="4" y="22" width="1" height="1" fill="#14120f"/>
  <rect x="5" y="22" width="1" height="1" fill="#6b6459"/>
  <rect x="6" y="22" width="21" height="1" fill="#a89c88"/>
  <rect x="27" y="22" width="1" height="1" fill="#6b6459"/>
  <rect x="28" y="22" width="1" height="1" fill="#14120f"/>
  <rect x="4" y="23" width="1" height="1" fill="#14120f"/>
  <rect x="5" y="23" width="1" height="1" fill="#6b6459"/>
  <rect x="6" y="23" width="2" height="1" fill="#a89c88"/>
  <rect x="8" y="23" width="4" height="1" fill="#14120f"/>
  <rect x="13" y="23" width="1" height="1" fill="#14120f"/>
  <rect x="15" y="23" width="3" height="1" fill="#14120f"/>
  <rect x="19" y="23" width="1" height="1" fill="#14120f"/>
  <rect x="21" y="23" width="4" height="1" fill="#14120f"/>
  <rect x="25" y="23" width="2" height="1" fill="#a89c88"/>
  <rect x="27" y="23" width="1" height="1" fill="#6b6459"/>
  <rect x="28" y="23" width="1" height="1" fill="#14120f"/>
  <rect x="5" y="24" width="1" height="1" fill="#6b6459"/>
  <rect x="6" y="24" width="6" height="1" fill="#a89c88"/>
  <rect x="12" y="24" width="1" height="1" fill="#14120f"/>
  <rect x="13" y="24" width="1" height="1" fill="#f4efe3"/>
  <rect x="14" y="24" width="1" height="1" fill="#14120f"/>
  <rect x="15" y="24" width="3" height="1" fill="#a89c88"/>
  <rect x="18" y="24" width="1" height="1" fill="#14120f"/>
  <rect x="19" y="24" width="1" height="1" fill="#f4efe3"/>
  <rect x="20" y="24" width="1" height="1" fill="#14120f"/>
  <rect x="21" y="24" width="6" height="1" fill="#a89c88"/>
  <rect x="27" y="24" width="1" height="1" fill="#6b6459"/>
  <rect x="7" y="25" width="5" height="1" fill="#a89c88"/>
  <rect x="12" y="25" width="1" height="1" fill="#14120f"/>
  <rect x="13" y="25" width="1" height="1" fill="#f4efe3"/>
  <rect x="14" y="25" width="1" height="1" fill="#14120f"/>
  <rect x="15" y="25" width="3" height="1" fill="#a89c88"/>
  <rect x="18" y="25" width="1" height="1" fill="#14120f"/>
  <rect x="19" y="25" width="1" height="1" fill="#f4efe3"/>
  <rect x="20" y="25" width="1" height="1" fill="#14120f"/>
  <rect x="21" y="25" width="5" height="1" fill="#a89c88"/>
  <rect x="8" y="26" width="4" height="1" fill="#a89c88"/>
  <rect x="13" y="26" width="1" height="1" fill="#14120f"/>
  <rect x="15" y="26" width="3" height="1" fill="#a89c88"/>
  <rect x="19" y="26" width="1" height="1" fill="#14120f"/>
  <rect x="21" y="26" width="4" height="1" fill="#a89c88"/>
  <rect x="8" y="27" width="17" height="1" fill="#14120f"/>
</svg>
